<?xml version="1.0" encoding="utf-8"?>
<!-- Generator: Adobe Illustrator 23.0.3, SVG Export Plug-In . SVG Version: 6.00 Build 0)  -->
<svg version="1.1" id="Layer_1" xmlns="http://www.w3.org/2000/svg" xmlns:xlink="http://www.w3.org/1999/xlink" x="0px" y="0px"
	 viewBox="0 0 400 400" style="enable-background:new 0 0 400 400;" xml:space="preserve">
<path d="M211.18,390.07c-7.42,0-14.84,0-22.27,0c-0.95-0.21-1.89-0.49-2.85-0.63c-8.79-1.27-17.69-2.03-26.37-3.84
	C66.02,366.06,1.09,276.96,10.94,181.46c4.1-39.7,18.58-75.28,45.12-105.22c45.21-51,102.26-72.31,169.77-64.27
	c36.98,4.4,69.75,19.51,97.97,43.95c34.33,29.74,55.55,67.03,63.36,111.82c1.22,7.02,1.94,14.13,2.89,21.2c0,7.42,0,14.84,0,22.27
	c-0.29,2.55-0.59,5.09-0.87,7.64c-4.34,39.68-18.96,75.02-45.19,105.24c-29.68,34.2-66.92,55.31-111.58,63.1
	C225.38,388.41,218.26,389.12,211.18,390.07z M200.05,178.82c-1.6-2.18-2.28-3.4-3.23-4.35c-16.85-16.9-33.73-33.78-50.62-50.64
	c-1.31-1.31-2.65-2.62-4.13-3.71c-5.72-4.24-13.33-4.05-18.94,0.37c-7.96,6.27-8.22,16.8-0.44,24.62
	c17.27,17.36,34.61,34.64,51.92,51.96c0.94,0.94,1.81,1.94,2.83,3.04c-1.11,1.16-2.02,2.15-2.96,3.1
	c-16.87,16.88-33.75,33.76-50.61,50.65c-1.22,1.22-2.44,2.47-3.49,3.83c-5.22,6.74-4.18,16.17,2.34,21.64
	c6.83,5.73,15.48,4.98,22.58-2.11c17.25-17.2,34.46-34.45,51.69-51.67c0.94-0.94,1.93-1.82,3.06-2.88c1.14,1.08,2.13,1.97,3.08,2.92
	c16.88,16.88,33.75,33.76,50.63,50.63c1.13,1.13,2.29,2.27,3.54,3.27c9.37,7.43,22.7,2.76,25.34-8.88
	c1.47-6.47-1.14-11.51-5.62-15.97c-17.25-17.2-34.46-34.45-51.68-51.68c-0.92-0.92-1.79-1.91-3.11-3.34
	c1.38-1.1,2.53-1.86,3.49-2.82c16.9-16.86,33.77-33.74,50.64-50.62c1.22-1.22,2.43-2.47,3.48-3.85c4.42-5.82,4.29-13.52-0.26-19.23
	c-6.3-7.91-16.79-8.11-24.64-0.3c-17.27,17.18-34.47,34.43-51.67,51.68C202.32,175.42,201.64,176.64,200.05,178.82z"/>
</svg>
