<?xml version="1.0" encoding="utf-8"?>
<!-- Generator: Adobe Illustrator 23.0.3, SVG Export Plug-In . SVG Version: 6.00 Build 0)  -->
<svg version="1.1" id="Layer_1" xmlns="http://www.w3.org/2000/svg" xmlns:xlink="http://www.w3.org/1999/xlink" x="0px" y="0px"
	 viewBox="0 0 400 400" style="enable-background:new 0 0 400 400;" xml:space="preserve">
<g>
	<path d="M234.55,64.94c11.54-0.09,19.79,10.5,16.64,21.84c-7.04,25.28-14.3,50.5-21.51,75.74
		c-15.59,54.61-31.24,109.21-46.78,163.84c-2.2,7.72-6.18,13.44-14.55,14.94c-12.35,2.21-22.79-8.92-19.48-21.17
		c4.95-18.32,10.3-36.53,15.52-54.78c17.78-62.25,35.57-124.5,53.37-186.75C220.24,69.93,226.33,65.01,234.55,64.94z"/>
	<path d="M349.16,203.37c-1.97-1.45-3.3-2.19-4.34-3.23c-17.76-17.71-35.49-35.46-53.22-53.19c-5.02-5.02-6.76-11.02-4.68-17.78
		c1.98-6.43,6.56-10.41,13.19-11.78c5.85-1.2,11.06,0.43,15.23,4.58c23.23,23.11,46.44,46.25,69.51,69.51
		c6.95,7.01,6.84,17.29-0.16,24.34c-22.9,23.06-45.89,46.03-68.94,68.94c-7.22,7.17-17.79,7.1-24.65,0.19
		c-6.81-6.87-6.74-17.46,0.41-24.65c17.68-17.79,35.45-35.5,53.2-53.22C345.75,206.06,346.98,205.19,349.16,203.37z"/>
	<path d="M51.42,203.22c19.22,19.23,37.69,37.75,56.23,56.2c4.15,4.13,6.66,8.84,6.1,14.76c-0.66,7.07-4.38,12.12-10.99,14.7
		c-6.65,2.6-12.69,1.11-18.01-3.54c-0.61-0.53-1.16-1.13-1.73-1.7c-22.12-22.12-44.25-44.23-66.36-66.36
		c-8.83-8.84-8.89-18.51-0.16-27.25c22.3-22.32,44.63-44.61,66.91-66.95c4.59-4.6,9.9-6.99,16.42-5.68
		c6.63,1.33,11.2,5.33,13.19,11.76c2.09,6.76,0.35,12.77-4.66,17.79c-17.73,17.74-35.46,35.48-53.21,53.19
		C54.12,201.18,52.88,202.03,51.42,203.22z"/>
</g>
</svg>
