<?xml version="1.0" encoding="utf-8"?>
<!-- Generator: Adobe Illustrator 23.0.3, SVG Export Plug-In . SVG Version: 6.00 Build 0)  -->
<svg version="1.1" id="Layer_1" xmlns="http://www.w3.org/2000/svg" xmlns:xlink="http://www.w3.org/1999/xlink" x="0px" y="0px"
	 viewBox="0 0 400 400" style="enable-background:new 0 0 400 400;" xml:space="preserve">
<g>
	<path d="M233.34,17.4c12.64,2.17,21.49,10.28,30.31,18.77c19.37,18.65,38.94,37.09,58.57,55.46c9.51,8.91,14.02,19.63,14,32.67
		c-0.11,72.7-0.04,145.39-0.06,218.09c-0.01,19.57-11.79,34.97-30.24,39.43c-3.31,0.8-6.82,1.12-10.23,1.12
		c-65.79,0.06-131.59,0.07-197.38,0.04c-23.66-0.01-40.59-17.06-40.59-40.84c-0.02-94.47,0.14-188.94-0.11-283.41
		C57.53,35.25,74.52,19.89,91.05,17.9c0.32-0.04,0.61-0.33,0.91-0.5C139.09,17.4,186.22,17.4,233.34,17.4z M224.77,38.82
		c-1.77,0-2.96,0-4.14,0c-40.58,0-81.16,0-121.73,0c-12.52,0-19.78,7.21-19.78,19.65c-0.01,94.48-0.01,188.97,0,283.45
		c0,12.42,7.28,19.64,19.8,19.64c65.33,0.01,130.66,0.01,195.99,0c12.66,0,19.84-7.22,19.84-19.95c0-71.04,0-142.08,0-213.12
		c0-1.26,0-2.52,0-3.98c-1.77,0-3.07,0-4.36,0c-19.4,0-38.79,0-58.19,0c-17.24,0-27.41-10.24-27.42-27.58c0-17.97,0-35.94,0-53.91
		C224.77,41.74,224.77,40.46,224.77,38.82z M246.2,49.27c0,17.17,0,33.33,0,49.49c0,3.48,2.06,4.35,5.14,4.34
		c16.4-0.05,32.8-0.02,49.2-0.03c0.54,0,1.07-0.09,2.33-0.19C283.86,84.9,265.36,67.4,246.2,49.27z"/>
	<path d="M194.83,181.63c-25.92,0-51.84,0.03-77.76-0.02c-8.37-0.01-13.78-7.47-10.69-14.71c1.92-4.5,5.52-6.68,10.41-6.69
		c7.73-0.01,15.46,0,23.19,0c44.11,0,88.23-0.01,132.34,0.01c8.59,0,14.08,7.54,10.81,14.88c-2.06,4.61-5.87,6.56-10.88,6.55
		c-21.4-0.04-42.81-0.02-64.21-0.02C203.63,181.63,199.23,181.63,194.83,181.63z"/>
	<path d="M195.15,217.33c25.8,0,51.6-0.03,77.41,0.02c8.36,0.01,13.74,7.51,10.61,14.76c-1.94,4.49-5.57,6.63-10.45,6.64
		c-9.75,0.01-19.5,0-29.25,0c-41.62,0-83.23,0-124.85-0.01c-1.54,0-3.12,0.05-4.61-0.28c-5.42-1.2-9.04-6.27-8.42-11.59
		c0.64-5.51,5.17-9.51,11.08-9.52C142.83,217.31,168.99,217.33,195.15,217.33z"/>
	<path d="M141.95,274.45c8.33,0,16.66-0.02,24.99,0.01c6.95,0.02,11.84,4.36,11.97,10.54c0.13,6.26-4.9,10.86-12,10.87
		c-16.54,0.02-33.08,0.03-49.62,0c-6.91-0.01-11.75-4.48-11.74-10.72c0.01-6.23,4.85-10.66,11.77-10.69
		C125.52,274.43,133.73,274.45,141.95,274.45z"/>
</g>
</svg>
