<?xml version="1.0" encoding="utf-8"?>
<!-- Generator: Adobe Illustrator 23.0.3, SVG Export Plug-In . SVG Version: 6.00 Build 0)  -->
<svg version="1.1" id="Layer_1" xmlns="http://www.w3.org/2000/svg" xmlns:xlink="http://www.w3.org/1999/xlink" x="0px" y="0px"
	 viewBox="0 0 400 400" style="enable-background:new 0 0 400 400;" xml:space="preserve">
<g>
	<path d="M10,213.81c0-7.42,0-14.84,0-22.27c0.31-2.68,0.65-5.35,0.94-8.03c3.36-30.86,13.2-59.49,30.55-85.24
		c30.45-45.21,72.36-73.41,126.17-83.39c7.01-1.3,14.14-1.98,21.21-2.95c7.42,0,14.84,0,22.27,0c2.56,0.3,5.11,0.62,7.67,0.9
		c40.54,4.49,76.33,19.98,106.65,47.25c39.76,35.76,61.48,80.57,64.27,134.02c1.95,37.36-6.59,72.59-26.23,104.49
		c-35.53,57.7-87.55,88.92-155.18,93.04c-34.41,2.09-67.22-5.39-97.46-22.02c-53.45-29.39-86.28-74.17-97.87-134.21
		C11.61,228.28,10.98,221.01,10,213.81z M149.56,286.9c-6.47-2.53-13.54-4.83-20.21-7.98c-23.04-10.89-39.96-27.84-48.01-52.28
		c-10.09-30.63-5.98-59.69,11.69-86.78c0.88-1.35,1.13-3.38,1.03-5.05c-0.34-5.55-1.31-11.07-1.43-16.61
		c-0.18-8.31,0.69-16.54,3.64-24.43c3.35-8.97,10.56-14.3,18.71-13.38c4.52,0.51,9.27,0.97,13.37,2.72
		c9.5,4.07,18.74,8.77,27.92,13.53c2.58,1.34,4.76,1.91,7.61,1.2c23.7-5.94,47.49-5.88,71.23-0.31c3.79,0.89,6.67,0.43,9.96-1.6
		c10.19-6.31,20.62-12.16,32.59-14.68c14.41-3.04,22.62,1.35,26.97,15.35c3.9,12.56,3.25,25.38,1.33,38.21
		c-0.24,1.61,0.12,3.73,1.03,5.04c11.13,16.04,16.43,33.98,16.89,53.29c0.92,38.93-19.94,71.3-55.6,86.81
		c-6.05,2.63-12.3,4.78-18.7,7.24c5.56,10.14,6.19,21.07,6.12,32.15c-0.07,11.01-0.02,22.02-0.02,33.03c0,2.32,0,4.63,0,7.05
		c61.66-19.82,122.27-88.67,110.51-178.97c-10.6-81.36-81.25-146.84-167.51-146.21C111.6,34.87,37.56,104.13,32.56,193.43
		c-4.63,82.64,51.65,146.63,111.78,165.95c0-4.89,0-9.7,0-14.51c0-4.91,0-9.81,0-14.87c-1.8,0.22-3.15,0.36-4.49,0.54
		c-11.77,1.63-22.57-0.84-32.4-7.57c-7.13-4.88-11.65-11.98-16.49-18.86c-4.33-6.17-9.49-11.41-17.87-11.91
		c-0.63-7.38-1.25-14.56-1.87-21.83c7.25-0.64,13.49,0.97,19.42,4.03c10.16,5.23,16.79,13.9,22.95,23.16
		c6.97,10.48,17.37,13.68,29.12,9.31c0.94-0.35,1.99-1.42,2.26-2.36C146.6,298.73,148.03,292.89,149.56,286.9z M283.41,102.88
		c-2.32,0.59-4.36,0.75-6.07,1.6c-8.16,4.06-16.5,7.86-24.25,12.62c-6.4,3.94-12.54,4.61-19.74,3.02
		c-8.89-1.97-17.96-3.43-27.04-4.16c-14.54-1.17-28.85,1.1-42.94,4.68c-5.1,1.3-9.73,0.53-14.17-2.28c-4.49-2.84-9-5.68-13.69-8.14
		c-5.95-3.12-11.88-6.48-19.05-7.03c-2.39,10.31-2.3,20.36,0.24,30.31c1.47,5.76,1.23,10.89-2.63,15.71
		c-9.49,11.84-14.42,25.51-15.5,40.54c-1.27,17.62,2.66,33.84,13.63,48.04c11.66,15.09,27.47,23.49,45.58,27.83
		c9.83,2.35,19.88,3.76,30.34,5.68c-4.41,6.44-8.4,13-13.11,18.98c-6.05,7.67-8.56,16.19-8.46,25.82
		c0.16,15.46,0.04,30.92,0.05,46.38c0,1.3,0.11,2.61,0.16,3.86c22.4,4.42,44.33,4.42,66.63-0.05c0-1.49,0-2.83,0-4.16
		c0-15.09-0.17-30.18,0.06-45.26c0.16-10.17-2.43-19.12-8.9-27.16c-4.61-5.74-8.4-12.14-12.8-18.6c3.74-0.61,6.89-1.17,10.06-1.62
		c13.61-1.95,27.05-4.5,39.55-10.59c17.04-8.31,30.06-20.72,36.12-38.86c8.32-24.93,4.85-48.54-10.93-69.86
		c-3.96-5.35-4.84-10.6-3.18-17C285.9,123.38,285.97,113.41,283.41,102.88z"/>
</g>
</svg>
