<?xml version="1.0" encoding="utf-8"?>
<!-- Generator: Adobe Illustrator 23.0.3, SVG Export Plug-In . SVG Version: 6.00 Build 0)  -->
<svg version="1.1" id="Layer_1" xmlns="http://www.w3.org/2000/svg" xmlns:xlink="http://www.w3.org/1999/xlink" x="0px" y="0px"
	 viewBox="0 0 400 400" style="enable-background:new 0 0 400 400;" xml:space="preserve">
<g>
	<path d="M384.99,226.46c-0.73,6.19-1.29,12.41-2.21,18.57c-2.94,19.73-7.68,38.93-17.55,56.51c-14.1,25.13-35.2,41.95-61.92,52.08
		c-19.47,7.38-39.75,10.68-60.44,10.78c-29.61,0.14-59.24-0.09-88.84-0.75c-21.98-0.49-43.73-3.08-64.09-12.25
		c-35.47-15.99-57.59-43.4-67.55-80.65c-5.4-20.18-7.98-40.86-7.28-61.81c0.87-26.27,7.97-50.5,24.31-71.52
		c2.4-3.09,2.61-6.18,2.73-9.96c0.42-13.44,1.01-26.92,2.62-40.26c1.88-15.55,6.38-30.54,12.28-45.11c1.42-3.49,3.36-3.84,6.61-3.37
		c19.07,2.74,36.81,9.29,53.47,18.73c10.98,6.22,21.66,12.99,32.4,19.63c2.39,1.48,4.63,1.97,7.47,1.53
		c29.12-4.44,58.25-4.63,87.38,0.1c1.7,0.28,3.85-0.24,5.36-1.13c9.64-5.68,19.39-11.22,28.66-17.46
		c15.68-10.54,32.95-16.66,51.35-20.08c1.42-0.26,2.83-0.56,4.24-0.85c7.2-1.5,7.15-1.48,9.82,5.18
		c10.5,26.17,14.98,53.39,14.18,81.51c-0.14,4.79,0.99,9,3.81,12.85c13.65,18.64,21.05,39.55,22.62,62.57
		c0.06,0.93,0.38,1.84,0.57,2.76C384.99,211.52,384.99,218.99,384.99,226.46z M67.14,53.02c-1,3.01-1.97,5.72-2.8,8.48
		c-6.51,21.47-10.11,43.37-8.75,65.83c0.43,7.08-1.28,12.84-5.6,18.36c-12.12,15.47-18.59,33.28-20.67,52.71
		c-2.51,23.41,0.01,46.51,6.13,69.05c10.41,38.33,34.22,64.53,72.68,76.33c18.01,5.53,36.72,6.52,55.37,6.81
		c27.57,0.43,55.15,0.39,82.73,0.15c21.67-0.19,42.5-4.6,62.18-13.95c25.03-11.89,42.29-30.88,51.99-56.79
		c6.42-17.16,10.06-34.98,10.62-53.21c0.38-12.34-0.16-24.82-1.68-37.06c-2.01-16.17-9.17-30.5-18.7-43.67
		c-3.96-5.47-6.56-11.55-6.1-18.48c1.03-15.63-0.77-31.05-3.74-46.3c-1.85-9.49-4.81-18.76-7.3-28.27
		c-11.95,2.55-23.19,4.5-33.12,10.13c-14.33,8.13-28.44,16.66-42.44,25.36c-5.58,3.47-11.12,4.41-17.52,3.33
		c-25.37-4.25-50.85-4.52-76.24-0.56c-9.72,1.51-18.01,0.35-26.19-5.51c-8.48-6.07-17.65-11.25-26.81-16.3
		C97.42,61.9,83.13,55.65,67.14,53.02z"/>
	<path d="M201.02,185.55c24.37-0.69,49.28-1.54,74.19-2.07c23.11-0.49,39.84,10.62,51.97,29.58c10.82,16.91,12.82,35.46,9.8,54.83
		c-1.77,11.35-4.84,22.33-11.1,32.15c-8.66,13.61-21.26,21.95-36.34,26.94c-22.6,7.48-45.9,10.73-69.61,10.67
		c-21.17-0.06-42.38-0.28-63.51-1.54c-18.4-1.1-36.48-4.73-53.61-12.01c-22.18-9.42-33.77-26.96-37.9-50
		c-2.28-12.71-3.31-25.48-1.01-38.4c4.75-26.69,26.53-52.1,60.37-51.41C149.68,184.83,175.07,185.14,201.02,185.55z M197.09,324.29
		c3.25,0,6.5-0.04,9.76,0.01c26.24,0.38,52.16-1.53,77.37-9.63c17.65-5.66,30.42-16.24,36.09-34.29
		c3.52-11.22,5.32-22.66,4.12-34.51c-1.63-16.17-8.8-29.35-21.13-39.67c-8.16-6.83-17.85-9.64-28.51-9.36
		c-27.93,0.73-55.86,1.71-83.79,1.91c-22.15,0.16-44.3-0.91-66.46-1.05c-23-0.14-40.45,13.3-46.15,35.63
		c-4.91,19.24-2.35,38.04,5.5,56.04c4.01,9.2,10.95,16.34,20.29,20.2c8.95,3.69,18.18,7.02,27.58,9.27
		C153.2,323.97,175.15,324.42,197.09,324.29z"/>
	<path d="M106,256.71c0.35-11.93,4.25-22.92,13.57-31.74c11.15-10.55,28.66-10.35,39.94,0.02c17.76,16.33,17.55,47.37,1.12,63.37
		c-13.61,13.25-33.97,11.75-45.42-3.48C109.04,276.69,106.2,267.46,106,256.71z M118.68,257.44c1.34,4.82,2.08,9.91,4.12,14.41
		c6.27,13.82,20.9,16.2,30.18,5.22c8.66-10.23,8.79-29.01,0.27-39.33c-8.37-10.15-21.18-9.5-28.52,1.41
		C121.05,244.63,119.53,250.72,118.68,257.44z"/>
	<path d="M300.56,257.21c-0.25,12.56-4.28,23.49-13.57,32.32c-10.72,10.19-28.19,10.57-39.11,0.65
		c-19.2-17.45-19.09-48.82,0.22-66.06c10.78-9.62,28.03-9.37,38.57,0.55C295.8,233.26,300.54,244.37,300.56,257.21z M287.32,254.92
		c-0.75-2.63-1.51-8.13-3.83-12.86c-6.72-13.67-21.24-15.44-30.33-4.1c-8.95,11.16-8.06,30.41,1.86,40.67
		c6.89,7.12,17.1,7.15,24.05,0.08C284.8,272.86,286.83,265.58,287.32,254.92z"/>
</g>
</svg>
