<?xml version="1.0" encoding="utf-8"?>
<!-- Generator: Adobe Illustrator 23.0.3, SVG Export Plug-In . SVG Version: 6.00 Build 0)  -->
<svg version="1.1" id="Layer_1" xmlns="http://www.w3.org/2000/svg" xmlns:xlink="http://www.w3.org/1999/xlink" x="0px" y="0px"
	 viewBox="0 0 400 400" style="enable-background:new 0 0 400 400;" xml:space="preserve">
<path d="M8.01,190.42c2.17-2.83,4.06-5.95,6.56-8.46c48.46-48.57,96.96-97.09,145.51-145.57c20.88-20.84,52.48-22.72,74.87-4.57
	c2.32,1.88,4.46,4.01,6.58,6.13c48.17,48.15,96.33,96.31,144.49,144.47c0.8,0.8,1.6,1.58,2.37,2.4c4.82,5.2,4.81,12.44-0.02,17.14
	c-4.73,4.61-11.88,4.61-16.85-0.18c-2.96-2.85-5.69-5.94-8.52-8.92c-0.33,0.12-0.65,0.23-0.98,0.35c0,1.27,0,2.55,0,3.82
	c0,48.99,0.03,97.98-0.02,146.96c-0.01,15.86-9.24,28.97-23.84,33.62c-3.63,1.15-7.6,1.72-11.41,1.72
	c-84.48,0.09-168.96,0.11-253.44,0.05c-20.32-0.02-35.26-15.06-35.28-35.36c-0.05-48.86-0.02-97.73-0.02-146.59
	c0-1.35,0-2.69,0-5.03c-2.76,2.74-4.93,4.87-7.08,7.02c-9.03,9.02-16.8,8-22.92-3.01C8.01,194.42,8.01,192.42,8.01,190.42z
	 M140.01,355.42c0-1.8,0-3.15,0-4.51c0-29.62-0.04-59.24,0.01-88.86c0.04-22.32,16.27-38.56,38.53-38.63
	c14-0.04,27.99-0.02,41.99-0.01c23.49,0.02,39.45,16.01,39.46,39.58c0.02,29.37,0,58.74,0,88.11c0,1.33,0,2.67,0,4.09
	c0.87,0.1,1.35,0.21,1.82,0.21c21.75,0.01,43.49,0.06,65.24-0.03c6.77-0.03,10.92-4.52,10.93-11.58
	c0.02-57.61,0.03-115.22-0.07-172.84c0-1.52-0.81-3.41-1.89-4.49c-37.67-37.8-75.38-75.56-113.17-113.22
	c-13.25-13.21-32.36-13.28-45.57-0.12c-37.9,37.74-75.69,75.6-113.44,113.49c-1.06,1.07-1.71,2.99-1.76,4.55
	c-0.2,5.99-0.08,11.99-0.08,17.99c0,51.24,0,102.48,0,153.72c0,8.6,3.97,12.52,12.63,12.55c4.12,0.01,8.25,0,12.37,0
	C104.5,355.42,121.99,355.42,140.01,355.42z M164.01,355.15c24.24,0,48.02,0,71.85,0c0.06-0.75,0.14-1.23,0.14-1.72
	c0.01-30.73,0.04-61.46-0.02-92.19c-0.02-8.18-5.79-13.77-14.05-13.81c-14.24-0.05-28.48-0.02-42.72-0.01
	c-9.9,0.01-15.19,5.34-15.19,15.32c-0.01,24.23,0,48.47,0,72.7C164.01,341.92,164.01,348.4,164.01,355.15z"/>
</svg>
