<?xml version="1.0" encoding="utf-8"?>
<!-- Generator: Adobe Illustrator 23.0.3, SVG Export Plug-In . SVG Version: 6.00 Build 0)  -->
<svg version="1.1" id="Layer_1" xmlns="http://www.w3.org/2000/svg" xmlns:xlink="http://www.w3.org/1999/xlink" x="0px" y="0px"
	 viewBox="0 0 400 400" style="enable-background:new 0 0 400 400;" xml:space="preserve">
<path d="M9.39,173.17c0-1,0-2,0-3c0.34-1.81,0.74-3.61,1.02-5.44c1.24-8.11,1.78-16.4,3.78-24.32c8.25-32.63,27.07-58.46,53-79.24
	c36.69-29.4,79.33-42.81,125.77-45.05c19.38-0.93,38.64,0.98,57.61,5.2c36.46,8.11,69.2,23.64,96.27,49.76
	c30.99,29.9,47.97,65.8,45.51,109.73c-0.95,16.97-5.51,32.92-12.98,48.07c-10.13,20.57-24.86,37.68-41.11,53.55
	c-23.77,23.22-50.14,43.26-77.68,61.69c-17.21,11.52-35.07,22.09-52.85,32.73c-4.42,2.65-9.57,4.28-14.57,5.7
	c-4.93,1.4-8-1.34-7.99-6.46c0-2.36,0.29-4.72,0.61-7.06c0.97-7.04,2.46-14.04,2.93-21.1c0.77-11.82-1.67-16.55-12.94-19.9
	c-5.82-1.73-11.92-2.54-17.9-3.7c-37.94-7.4-72.13-22.59-100.54-49.26c-28.35-26.62-45.62-58.72-47.03-98.32
	C10.24,175.54,9.7,174.36,9.39,173.17z M200.95,168.37c1.03,1.41,1.39,1.9,1.75,2.4c11.96,16.31,23.88,32.65,35.91,48.91
	c3.19,4.31,7.57,5.57,12.23,3.99c4.54-1.54,7.14-5.37,7.15-10.68c0.01-25.23,0.02-50.47,0-75.7c-0.01-6.72-4.17-11.06-10.47-11.07
	c-6.46-0.01-10.48,4.16-10.49,10.96c-0.02,12.99-0.01,25.98-0.01,38.97c0,1.82,0,3.64,0,6.33c-1.13-1.41-1.68-2.05-2.18-2.73
	c-11.69-15.89-23.36-31.79-35.05-47.69c-2.11-2.87-4.4-5.47-8.31-5.76c-7.36-0.55-12.11,3.96-12.14,11.82
	c-0.06,20.36-0.02,40.72-0.02,61.08c0,4.62-0.14,9.25,0.05,13.86c0.35,8.43,7.86,13.51,15.07,10.24c4.79-2.17,6.51-6.28,6.51-11.28
	C200.96,197.83,200.95,183.62,200.95,168.37z M270.2,174.8c0,12.12-0.08,24.25,0.03,36.37c0.08,8.56,4.23,13.18,11.91,13.26
	c12,0.12,24,0.11,35.99,0c6.97-0.06,11.82-4.71,11.82-10.95c-0.01-6.12-5.06-10.63-12-10.66c-7.37-0.03-14.75-0.12-22.12,0.05
	c-3.01,0.07-4.4-0.75-4.14-3.98c0.23-2.73,0.27-5.52-0.01-8.24c-0.39-3.76,1.24-4.62,4.73-4.58c7.98,0.09,16,0.16,23.94-0.5
	c6.24-0.52,10.07-5.62,9.57-11.26c-0.51-5.74-5.08-9.72-11.25-9.74c-7.87-0.03-15.75-0.06-23.62,0.02
	c-2.37,0.03-3.43-0.76-3.34-3.24c0.13-3.49,0.18-7-0.01-10.49c-0.16-2.88,1.07-3.65,3.76-3.61c8,0.12,16,0.03,23.99,0.05
	c4.69,0.01,7.83-2.36,9.61-6.48c2.81-6.5-1.2-14.13-8.36-14.39c-13.83-0.51-27.7-0.25-41.55-0.01c-3.94,0.07-7.47,3.67-8.27,7.6
	c-0.45,2.18-0.64,4.45-0.65,6.69C270.16,152.06,270.2,163.43,270.2,174.8z M77.3,175.14c0,12.5-0.06,25,0.02,37.5
	c0.04,7.04,4.39,11.67,11.37,11.77c12.37,0.17,24.75,0.18,37.12-0.01c6.62-0.1,11.31-5.16,11.06-11.26
	c-0.25-6.08-4.87-10.26-11.52-10.3c-6.75-0.05-13.5-0.01-20.25-0.01c-6.16,0-6.17,0-6.17-5.98c0-19.12,0.12-38.25-0.12-57.37
	c-0.04-3.18-1.07-6.71-2.71-9.43c-2.29-3.8-7.5-4.82-11.76-3.27c-4.29,1.56-6.99,5.41-7.02,10.51
	C77.25,149.89,77.3,162.51,77.3,175.14z M144.82,174.84c0,12.62-0.11,25.24,0.04,37.86c0.1,8.86,7.97,14.14,15.38,10.48
	c4.57-2.25,6.2-6.27,6.2-11.11c0.02-11.75,0.01-23.49,0.01-35.24c0-13,0.06-25.99-0.03-38.99c-0.05-6.84-4.2-11.42-10.17-11.55
	c-6.91-0.16-11.35,4.16-11.41,11.43C144.75,150.1,144.82,162.47,144.82,174.84z"/>
</svg>
