<?xml version="1.0" encoding="utf-8"?>
<!-- Generator: Adobe Illustrator 23.0.3, SVG Export Plug-In . SVG Version: 6.00 Build 0)  -->
<svg version="1.1" id="Layer_1" xmlns="http://www.w3.org/2000/svg" xmlns:xlink="http://www.w3.org/1999/xlink" x="0px" y="0px"
	 viewBox="0 0 400 400" style="enable-background:new 0 0 400 400;" xml:space="preserve">
<g>
	<path d="M390.5,304.67c-1.01,3.13-2.01,6.26-3.31,10.3c-38.19-38.97-75.9-77.43-112.71-114.99
		c36.67-37.37,74.45-75.89,112.72-114.89c1.29,4.01,2.3,7.14,3.3,10.27C390.5,165.14,390.5,234.9,390.5,304.67z"/>
	<path d="M30.05,68.61c5.44-0.73,10.87-2.08,16.31-2.09c91.03-0.13,182.06-0.09,273.09-0.09c12.24,0,24.5-0.22,36.73,0.11
		c4.96,0.13,9.88,1.45,15.72,2.36c-1.59,1.77-2.28,2.61-3.05,3.38c-47.78,47.55-95.56,95.1-143.35,142.63
		c-10.28,10.22-22.4,14.03-36.24,8.92c-4.82-1.78-9.54-4.91-13.21-8.54C127.78,167.54,79.7,119.6,31.57,71.7
		c-0.52-0.51-0.98-1.08-1.47-1.62C30.08,69.59,30.07,69.1,30.05,68.61z"/>
	<path d="M31.25,330.96c37.57-38.29,75.29-76.75,113.32-115.51c5.47,5.49,10.44,10.45,15.37,15.44
		c7.64,7.73,16.56,13.35,27.21,15.77c20.55,4.66,38.37-0.65,53.42-15.3c5.13-5,10.06-10.2,15.48-15.72
		c38.02,38.79,75.79,77.32,113.58,115.87c-3.77,0.56-8.92,1.95-14.08,2c-25.6,0.23-51.2,0.1-76.79,0.1
		c-77.54,0-155.07-0.01-232.61,0.02C40.55,333.64,35.17,332.89,31.25,330.96z"/>
	<path d="M126.69,200.08c-36.86,37.6-74.51,76.01-112.49,114.75c-2.92-5.6-3.71-10.73-3.7-16.06c0.02-29.69,0.01-59.37,0.01-89.06
		c0-35.99-0.09-71.99,0.1-107.98c0.03-5.28,1.43-10.55,2.19-15.82c0.54-0.12,1.07-0.24,1.61-0.36
		C52.12,124.03,89.84,162.5,126.69,200.08z"/>
</g>
</svg>
