<?xml version="1.0" encoding="utf-8"?>
<!-- Generator: Adobe Illustrator 23.0.3, SVG Export Plug-In . SVG Version: 6.00 Build 0)  -->
<svg version="1.1" id="Layer_1" xmlns="http://www.w3.org/2000/svg" xmlns:xlink="http://www.w3.org/1999/xlink" x="0px" y="0px"
	 viewBox="0 0 400 400" style="enable-background:new 0 0 400 400;" xml:space="preserve">
<g>
	<g>
		<path d="M315.78,395c-77.19,0-154.37,0-231.56,0c-0.84-0.26-1.66-0.57-2.51-0.77c-14.72-3.37-25.35-14.88-26.94-29.85
			c-0.61-5.78-0.23-11.66-0.25-17.5c-0.03-8.47-0.01-16.94-0.01-25.77c-2.99,0-5.63,0.03-8.26,0c-19.3-0.26-34.31-15.09-34.36-34.38
			c-0.11-45.57-0.1-91.14-0.01-136.71c0.04-19.51,15.04-34.34,34.57-34.55c2.62-0.03,5.23,0,8.06,0c0-1.89,0-3.27,0-4.65
			c0-23.1-0.01-46.2,0-69.31C54.53,19.5,68.99,5.03,90.99,5.03C140.37,5.02,189.75,5.07,239.13,5c17.31-0.03,31.95,5.98,43.87,18.53
			c15.65,16.47,31.29,32.95,46.9,49.46c7.6,8.04,12.52,17.53,14.52,28.39c0.84,4.55,1,9.23,1.49,14.08c1.84,0,3.6,0,5.36,0
			c22.56,0.01,36.87,14.3,36.88,36.85c0.01,25.13,0,50.27,0,75.4c0,19.8,0.12,39.6-0.05,59.4c-0.14,16.73-11.99,30.65-28.31,33.33
			c-4.57,0.75-9.28,0.67-14.29,1c0,1.39,0,2.75,0,4.12c-0.01,11.93,0.12,23.87-0.05,35.79c-0.2,14.32-9.29,26.82-22.77,31.62
			C320.42,393.78,318.08,394.33,315.78,395z M200.04,298.27c50.38,0,100.76,0,151.14,0c9.94,0,14.1-4.15,14.1-14.07
			c0-43.91,0-87.81,0-131.72c0-10.01-4.11-14.16-14-14.16c-100.89,0-201.78,0-302.67,0c-9.69,0-13.91,4.2-13.91,13.87
			c0,43.91,0,87.81,0,131.72c0,10.26,4.05,14.36,14.19,14.36C99.28,298.27,149.66,298.27,200.04,298.27z M77.36,115.2
			c82.01,0,163.55,0,245.2,0c0.52-10.25-2.34-19.08-9.22-26.39c-15.74-16.73-31.55-33.4-47.4-50.04
			c-7.01-7.36-15.71-10.9-25.88-10.9c-50.01,0.01-100.03,0-150.04,0.01c-8.09,0-12.65,4.64-12.66,12.83
			c-0.02,22.72-0.01,45.44-0.01,68.16C77.36,110.89,77.36,112.91,77.36,115.2z M77.36,321.26c0,12.84-0.01,25.26,0,37.69
			c0.01,8.67,4.47,13.19,13.06,13.19c73.09,0.01,146.18,0.01,219.27,0c8.37,0,12.91-4.57,12.93-12.95c0.02-11.55,0.01-23.09,0-34.64
			c0-1.09-0.14-2.18-0.22-3.29C240.67,321.26,159.24,321.26,77.36,321.26z"/>
		<path d="M164.2,217.55c0-13.44-0.02-26.89,0.01-40.33c0.02-8.45,4.49-12.96,12.86-13c7.48-0.04,14.97-0.11,22.45,0.01
			c18.37,0.3,32.18,8.53,39.44,25.37c9.53,22.11,8.84,44.05-5.38,64.29c-7.64,10.88-18.62,16.6-32.03,17.08
			c-8.11,0.29-16.23,0.37-24.34,0.34c-8.38-0.03-12.85-4.62-12.88-13.06c-0.05-13.57-0.01-27.14-0.01-40.71
			C164.27,217.55,164.24,217.55,164.2,217.55z M187.25,248.25c4.12,0,7.78-0.04,11.44,0.01c9.47,0.13,15.97-4.45,19.69-12.87
			c5.31-12,4.99-24.18-0.05-36.17c-2.72-6.47-7.65-10.94-14.78-11.73c-5.33-0.59-10.79-0.12-16.3-0.12
			C187.25,207.63,187.25,227.74,187.25,248.25z"/>
		<path d="M89.66,235.92c0,8.97,0.03,17.08-0.01,25.2c-0.03,7.57-4.49,12.64-11.15,12.77c-6.72,0.13-11.67-5.16-11.69-12.71
			c-0.07-28.16-0.11-56.33-0.1-84.49c0-7.72,4.63-12.47,12.26-12.42c9.88,0.06,19.88-0.51,29.62,0.78
			c18.09,2.4,31.1,19.02,29.98,36.8c-1.18,18.81-15.84,33.34-34.48,34.05C99.45,236.07,94.78,235.92,89.66,235.92z M89.77,213.08
			c4.88,0,9.31,0.19,13.73-0.04c6.37-0.33,11.5-5.34,12.21-11.53c0.69-6.02-2.99-12.25-9.2-13.54c-5.43-1.13-11.17-0.82-16.74-1.14
			C89.77,196.02,89.77,204.35,89.77,213.08z"/>
		<path d="M296.74,228.38c0,11.02,0.08,21.53-0.02,32.04c-0.08,8.66-8.06,14.26-15.67,11.05c-4.5-1.9-7.09-5.46-7.1-10.34
			c-0.09-28.8-0.09-57.59-0.01-86.39c0.02-6.52,4.88-11.26,11.38-11.32c11.54-0.1,23.09-0.08,34.63-0.01
			c6.6,0.04,11.53,4.75,11.75,11.02c0.22,6.23-4.82,11.56-11.48,11.75c-6.46,0.19-12.94,0.05-19.41,0.06c-1.23,0-2.46,0-3.88,0
			c0,6.53,0,12.68,0,19.3c6.7,0,13.25-0.1,19.8,0.03c6.56,0.12,11.33,4.19,12.02,9.96c0.83,6.95-4.11,12.66-11.3,12.81
			C310.74,228.49,304.03,228.38,296.74,228.38z"/>
	</g>
</g>
</svg>
