<?xml version="1.0" encoding="utf-8"?>
<!-- Generator: Adobe Illustrator 23.0.3, SVG Export Plug-In . SVG Version: 6.00 Build 0)  -->
<svg version="1.1" id="Layer_1" xmlns="http://www.w3.org/2000/svg" xmlns:xlink="http://www.w3.org/1999/xlink" x="0px" y="0px"
	 viewBox="0 0 400 400" style="enable-background:new 0 0 400 400;" xml:space="preserve">
<g>
	<path d="M296.72,390.57c-9.28-2-18.68-3.55-27.81-6.1c-18.82-5.25-36.34-13.69-53.2-23.43c-47.81-27.63-88.67-63.59-124.93-104.97
		c-23.52-26.85-44.07-55.77-59.92-87.84c-9.75-19.73-17.43-40.22-20.06-62.24c-1.65-13.82-1.2-27.56,5.58-40.21
		c2.14-3.98,4.91-7.79,8.06-11.03c11.04-11.39,22.48-22.39,33.57-33.73C73.4,5.28,97.27,6.9,111.79,21.05
		c17.31,16.86,34.33,34.02,51.29,51.24c14.94,15.17,15.05,37.91,0.22,51.75c-3.17,2.96-7.23,5.3-11.28,6.9
		c-10.36,4.09-18.54,10.31-23.05,20.75c-3,6.96-3.41,14.05-1.45,21.4c5.52,20.67,17.26,37.68,31.37,53.24
		c14.68,16.19,31.31,29.99,51.08,39.62c8.71,4.24,17.68,8,27.74,6.69c13.63-1.78,24.01-8.35,29.41-21.36
		c3.34-8.05,7.27-15.41,14.94-20.21c14.36-8.99,32.05-7.36,44.73,4.99c17.84,17.38,35.5,34.96,52.84,52.84
		c14.21,14.65,13.68,38.01-0.73,52.67c-11.38,11.58-22.96,22.96-34.42,34.46c-8.12,8.15-18.11,12.28-29.34,13.81
		c-0.95,0.13-1.87,0.47-2.8,0.71C307.13,390.57,301.93,390.57,296.72,390.57z"/>
</g>
</svg>
