<?xml version="1.0" encoding="utf-8"?>
<!-- Generator: Adobe Illustrator 23.0.3, SVG Export Plug-In . SVG Version: 6.00 Build 0)  -->
<svg version="1.1" id="Layer_1" xmlns="http://www.w3.org/2000/svg" xmlns:xlink="http://www.w3.org/1999/xlink" x="0px" y="0px"
	 viewBox="0 0 400 400" style="enable-background:new 0 0 400 400;" xml:space="preserve">
<g>
	<path d="M315.81,394.99c-54.36-2.09-105.36-16.09-152.07-43.98C83.36,302.99,32.93,232.99,12.19,141.71
		c-4.51-19.83-6.54-39.97-7.09-60.27C4.17,47.24,18.63,25.09,50.41,12.39C61.02,8.15,71.99,4.85,83.53,5
		c13.13,0.17,24.15,4.81,32.44,15.7c12.11,15.91,24.76,31.41,37.14,47.12c14.83,18.83,13.56,42.81-3.11,60.17
		c-5.87,6.11-11.52,12.44-17.59,18.36c-2.47,2.41-2.8,4.8-2.23,7.83c2.32,12.49,7.47,23.83,14.58,34.22
		c24.22,35.36,55.61,62.09,95.69,78.06c10.37,4.13,10.48,3.83,18.54-3.84c4.73-4.5,9.48-8.98,14.24-13.45
		c16.19-15.22,40.01-16.83,57.65-3.34c17.87,13.67,35.5,27.68,52.96,41.87c7.25,5.9,10.91,14.55,11.07,23.5
		c0.51,27.47-8.18,51.63-29.34,70.11c-11.49,10.03-25.58,13.52-40.6,13.69C321.92,395.02,318.87,394.99,315.81,394.99z
		 M318.8,376.97c3.34,0,6.68,0.13,10.01-0.02c13.87-0.63,25.22-6.38,33.63-17.4c9.36-12.25,13.91-26.49,15.43-41.61
		c0.8-7.96-2.01-14.74-8.84-19.93c-15.92-12.11-31.49-24.67-47.27-36.97c-11.94-9.31-25.6-8.6-36.63,1.74
		c-7.71,7.22-15.47,14.38-23.1,21.67c-3.26,3.11-6.73,4.74-11.29,3.38c-5.71-1.7-11.67-2.74-17.17-4.95
		c-44.92-17.99-79.92-47.99-105.86-88.58c-8.83-13.82-14.77-28.86-15.81-45.52c-0.25-4.03,0.79-7.27,3.61-10.18
		c7.25-7.48,14.35-15.11,21.54-22.65c10.91-11.44,11.61-25.09,1.79-37.54c-12.38-15.71-24.95-31.27-37.19-47.08
		c-3.5-4.52-7.9-6.79-13.22-7.85c-10.15-2.01-19.62,1.21-28.87,4.45c-20.32,7.13-37.98,20.76-36.7,51.94
		c0.92,22.41,3.26,44.53,8.51,66.34C63.34,278.99,182.47,374.65,318.8,376.97z"/>
</g>
</svg>
