<?xml version="1.0" encoding="utf-8"?>
<!-- Generator: Adobe Illustrator 23.0.3, SVG Export Plug-In . SVG Version: 6.00 Build 0)  -->
<svg version="1.1" id="Layer_1" xmlns="http://www.w3.org/2000/svg" xmlns:xlink="http://www.w3.org/1999/xlink" x="0px" y="0px"
	 viewBox="0 0 400 400" style="enable-background:new 0 0 400 400;" xml:space="preserve">
<g>
	<path d="M205.15,13.82c4.81,0.96,9.65,1.79,14.42,2.91c32.78,7.68,60.78,38.95,65.18,72.41c2.89,22.02-0.28,42.84-12.73,61.46
		c-16.53,24.73-39.39,39.13-69.62,41.18c-39.69,2.69-72.35-20.67-87.17-52.37c-13.92-29.77-8.29-69.43,13.54-94.1
		c13.4-15.15,29.54-25.58,49.52-29.65c3.4-0.69,6.83-1.23,10.25-1.84C194.07,13.82,199.61,13.82,205.15,13.82z M264.19,102.82
		c-0.16-37.55-30.11-67.39-67.57-67.31c-37.5,0.08-67.41,30.09-67.32,67.54c0.09,37.43,30.29,67.54,67.56,67.34
		C234.38,170.19,264.34,140.12,264.19,102.82z"/>
	<path d="M199.12,383.81c-29.38,0-58.76,0-88.14,0c-14.88,0-28.93-2.96-41.3-11.74c-14.16-10.06-22.56-23.9-24.05-41.03
		c-2.68-30.72,0.92-60.86,12.49-89.6c6.87-17.05,17.17-31.71,34.03-40.7c10.55-5.62,21.85-8.28,33.66-8.04
		c3.72,0.08,7.64,1.99,11.05,3.84c5.48,2.99,10.56,6.69,15.89,9.98c30.97,19.09,61.93,19.04,92.84-0.15
		c4.19-2.6,8.48-5.09,12.41-8.06c7.6-5.74,15.96-6.4,25.01-5.02c23.56,3.58,40.27,16.49,51.63,37.02
		c10.39,18.77,15.03,39.23,17.12,60.3c1.08,10.88,1.56,21.87,1.43,32.8c-0.39,32.35-22.86,56.49-55.13,59.72
		c-4.18,0.42-8.4,0.65-12.61,0.66C256.68,383.84,227.9,383.81,199.12,383.81z M198.7,362.13c0-0.02,0-0.03,0-0.05
		c30.59,0,61.17,0.25,91.76-0.08c25.81-0.27,41.46-16.54,41.14-42.29c-0.12-9.5-0.48-19.04-1.54-28.47
		c-1.93-17.15-5.48-33.95-13.81-49.36c-8.64-15.99-21.15-26.32-39.97-27.36c-1.56-0.09-3.39,0.28-4.71,1.07
		c-5.46,3.28-10.75,6.87-16.16,10.24c-14.96,9.32-31.23,14.97-48.79,16.31c-23.88,1.82-45.68-4.72-65.77-17.47
		c-4.77-3.03-9.5-6.13-14.31-9.12c-0.98-0.61-2.21-1.22-3.3-1.17c-11.69,0.57-22.18,4.23-30.57,12.7
		c-6.97,7.03-11.84,15.46-15.39,24.62c-9.08,23.41-11.28,47.93-10.66,72.72c0.34,13.69,6.3,24.83,18.55,31.9
		c7.95,4.59,16.71,5.82,25.74,5.82C140.18,362.13,169.44,362.13,198.7,362.13z"/>
</g>
</svg>
