<?xml version="1.0" encoding="utf-8"?>
<!-- Generator: Adobe Illustrator 23.0.3, SVG Export Plug-In . SVG Version: 6.00 Build 0)  -->
<svg version="1.1" id="Layer_1" xmlns="http://www.w3.org/2000/svg" xmlns:xlink="http://www.w3.org/1999/xlink" x="0px" y="0px"
	 viewBox="0 0 400 400" style="enable-background:new 0 0 400 400;" xml:space="preserve">
<g>
	<path d="M270.87,249.94c-48.57,0-96.67,0-145.12,0c-4.6-33.66-4.57-67.2-0.04-100.98c48.38,0,96.58,0,145.15,0
		C275.44,182.53,275.41,216.07,270.87,249.94z"/>
	<path d="M130.07,123.18c6.95-29.43,15.95-57.64,35.13-81.46c5.25-6.51,11.37-12.08,18.89-15.97c9.93-5.14,19.77-4.82,29.46,0.54
		c9.82,5.43,17.09,13.56,23.34,22.66c14,20.39,22.01,43.31,27.89,67.09c0.54,2.17,0.98,4.36,1.45,6.54
		c0.03,0.12-0.04,0.26-0.09,0.61C221.02,123.18,175.86,123.18,130.07,123.18z"/>
	<path d="M130.08,275.58c45.54,0,90.72,0,136.49,0c-1.68,6.5-3.17,12.85-4.97,19.1c-5.45,18.94-12.3,37.36-23.79,53.52
		c-5.28,7.43-11.51,14.54-18.51,20.33c-13.51,11.17-27.63,11.08-41.58,0.42c-5.28-4.04-10.17-8.89-14.24-14.14
		C145.39,331.47,136.72,304.08,130.08,275.58z"/>
	<path d="M296.48,249.82c4.17-33.74,4.18-67.13-0.01-101.08c1.48,0,2.74,0,3.99,0c25.71,0,51.42,0.04,77.13-0.06
		c2.84-0.01,4.04,0.7,4.78,3.64c7.93,31.58,7.95,63.09-0.18,94.62c-0.51,1.99-0.97,3.21-3.48,3.2c-26.76-0.1-53.53-0.06-80.29-0.07
		C297.9,250.06,297.39,249.93,296.48,249.82z"/>
	<path d="M100.11,149.01c-4.17,33.76-4.17,67.15,0.04,101.07c-1.49,0-2.76,0-4.02,0c-25.71,0-51.42-0.05-77.13,0.06
		c-2.87,0.01-4.04-0.75-4.76-3.66c-7.92-31.58-7.97-63.09,0.19-94.62c0.52-2.01,1.01-3.18,3.5-3.18c26.76,0.1,53.53,0.06,80.29,0.07
		C98.72,148.75,99.23,148.89,100.11,149.01z"/>
	<path d="M241.02,14.82c46.94,4.52,120.43,65.56,130.63,108.43c-26.24,0-52.44,0-79.04,0C283.68,83.32,271.31,44.87,241.02,14.82z"
		/>
	<path d="M155.59,14.83c-30.33,30.19-42.67,68.45-51.61,108.36c-26.41,0-52.73,0-79.1,0C37.03,78.75,108.73,19.24,155.59,14.83z"/>
	<path d="M240.74,383.96c15.36-14.35,25.71-31.63,33.94-50.3c8.21-18.62,13.69-38.1,17.81-58.1c26.52,0,52.83,0,79.18,0
		C361.5,318.36,286.96,380.24,240.74,383.96z"/>
	<path d="M24.43,275.54c26.97,0,53.21,0,79.56,0c8.93,39.97,21.26,78.24,51.24,108.04c-12.6,1.3-56.37-20-77.85-37.95
		C54.45,326.47,36.79,303.35,24.43,275.54z"/>
</g>
</svg>
